<?xml version="1.0" encoding="utf-8"?>
<!-- Generator: Adobe Illustrator 22.0.1, SVG Export Plug-In . SVG Version: 6.00 Build 0)  -->
<svg version="1.1" id="Layer_1" xmlns="http://www.w3.org/2000/svg" xmlns:xlink="http://www.w3.org/1999/xlink" x="0px" y="0px"
	 viewBox="0 0 100 100" style="enable-background:new 0 0 100 100;" xml:space="preserve">
<g>
	<g>
		<path d="M25.4,27.1c-0.1,0.6,0,1.1,0.2,1.6c0.9,2.4,2.3,4.3,4.2,5.8c1.9,1.5,3.7,2.6,5.4,4c3.4,2.8,5.7,5.8,7.7,9.6
			c0.2,0.4,0.3,0.8,0.4,1.3c-0.1-0.1-0.3-0.3-0.4-0.4c-2.2-3.1-4.7-5.7-7.6-8.1c-1.6-1.3-3.3-2.6-4.7-4.2c-0.6-0.7-1.2-1.4-1.8-2.1
			c-0.3-0.3-0.6-0.6-1-0.8c0.2,0.3,0.5,0.6,0.7,0.9c1.8,2.2,3.8,4.1,6,5.8c1.7,1.4,3.4,2.8,4.8,4.4c2.3,2.4,4,5,5.4,8.1
			c0.1,0.2,0.1,0.2,0.2,0.4c-0.1-0.9-0.1-1.7-0.4-2.6c-0.8-2.7-1.4-5.3-2.5-7.9c-1.2-2.6-2.9-5-4.8-7.2c-1.7-2-3.8-3.8-5.8-5.6
			C30,29.2,28.6,28,27,27c-0.2-0.1-0.4-0.1-0.6-0.1c0.1,0.1,0.2,0.2,0.4,0.2c1.5,0.9,2.8,2,4.2,3.2c2.6,2.4,5.4,4.9,7.6,7.6
			c2.2,2.7,3.5,5.6,4.4,8.9c0.1,0.2,0.1,0.4,0.1,0.5c0,0.1,0,0.2-0.1,0.2c-0.1,0-0.2-0.2-0.3-0.4c-2.3-4.2-5.2-7.3-8.9-10
			c-2-1.5-4.1-2.8-5.8-4.7c-0.9-1.1-1.6-2.3-2.1-3.7C25.7,28.3,25.6,27.7,25.4,27.1z"/>
		<path d="M48.5,29.2c-0.8,0.8-0.1,2.1,0,3.1s0.3,1.8,0.5,2.8c0.1-0.1,0.4-0.2,0.5-0.4c1.2-1.5,2.5-2.7,4-3.8
			c2.3-1.8,4.2-3.8,5.6-6.5c0.9-1.7,1.6-3.4,2.6-5.2c0.7-1.3,1.5-2.5,2.8-3.3c0.4,0,0.7,0.1,1.1,0.1c-0.9,0.6-1.7,1.6-2.2,2.5
			c-1.1,2.1-1.6,4.2-2.3,6.4c-0.9,2.9-2.5,4.8-5,6.3c-0.4,0.2-0.8,0.4-1.2,0.6c-2.2,1-4,2.3-5.7,4C49,36,48.9,36,48.7,36.2
			c0-0.5,0-1-0.1-1.4c-0.2-1.1-0.6-2.3-0.7-3.5c-0.5-3.8-0.1-7.5,1.2-10.9s2.4-6.2,3.3-9.7c0.6-2.1,1.5-4.3,1.7-6.5
			c0-0.2,0.1-0.4,0.1-0.6c0.1,0.1,0.1,0.3,0.1,0.5c-0.2,2.5-1.2,5-1.9,7.3c-0.6,2-1.1,4-1.9,5.8c-0.7,1.6-1.3,3.1-1.7,4.7
			c-0.6,2.4-0.9,4.8-0.9,7.3c0,0.2,0.1,0.5,0.1,0.7C48.3,29.8,48.6,29.5,48.5,29.2C48.5,29.2,48.5,29.2,48.5,29.2z M51,33.6
			c1.7-1,3.3-1.8,5-2.7c2.4-1.5,3.9-3.5,4.8-6.3c0.6-1.9,1.2-3.7,1.9-5.6c0.3-0.9,0.9-1.7,1.3-2.6c-0.3,0.2-0.6,0.5-0.9,0.8
			c-1,1.2-1.8,2.8-2.4,4.2c-0.7,1.4-1.2,2.6-1.9,3.8c-1.5,2.6-3.3,4.5-5.6,6.2c-0.9,0.7-1.8,1.3-2.4,2.2C50.9,33.6,51,33.6,51,33.6z
			"/>
		<path d="M45.1,64.8c-0.1-0.2-0.3-0.6-0.4-0.8c-0.7-0.9-1.3-1.7-2-2.6c-2-2.5-3.7-4.9-5.8-7.4c-1.8-2.1-4-4.1-6.4-5.7
			c-0.8-0.6-1.9-1.1-2.7-1.6c0,0-0.1,0.1-0.1,0.2c0.5,0.3,1,0.6,1.5,0.9c2,1.2,4,2.8,5.6,4.4c2.6,2.5,4.4,5.2,6.5,8.1
			c-0.2-0.2-0.4-0.3-0.6-0.5c-2-1.9-3.9-3.5-6.1-5.2c-1.6-1.2-3.1-2.5-4.7-3.8c-2.3-1.9-4.6-3.9-7.1-5.5c-0.7-0.5-1.6-1-2.5-1
			c3.6,1.8,6.7,4.5,9.7,7c1.7,1.5,3.5,2.7,5.2,4.1c1.7,1.4,3.2,2.8,4.9,4.2c0.2,0.2,0.4,0.4,0.5,0.6c0,0.1-0.1,0.2-0.2,0.2
			c0,0-0.1-0.2-0.2-0.3c-2.6-2-5.3-3.6-8.2-5.2c-2.2-1.2-4.5-2.5-6.7-3.9c-2.2-1.3-4-2.8-5.4-5c0,0-0.1,0.1-0.1,0.1
			c0.1,0.3,0.3,0.6,0.5,0.9c1,1.3,2.3,2.4,3.6,3.4c2.1,1.5,4.5,2.7,6.7,4c3,1.7,5.9,3.2,8.5,5.2c1.9,1.4,3.4,3,5,4.7
			c0.3,0.3,0.6,0.6,0.8,0.8C44.9,65,45.1,64.8,45.1,64.8z"/>
		<path d="M51.5,87.7c-0.1,0-0.3,0-0.4-0.1c-2.5-0.8-5.1-1.1-7.7-1.1c-3.6,0-6.6-0.4-10-2c-2.6-1.2-5.3-2.7-7.7-4.4
			c-0.9-0.6-1.8-1.5-2.6-2.4c0.3,0.1,0.6,0.4,0.8,0.6c3.1,2.6,6.6,4.6,10.1,6.2c3.1,1.4,5.9,1.6,9.2,1.7c1.6,0,3.1,0.1,4.6,0.3
			c0.1,0,0.3,0,0.4,0c-0.1-0.1-0.3-0.3-0.4-0.4c-2.1-0.6-4.2-1.2-6.3-1.6c-2.5-0.6-4.8-1.2-7.2-2.4c-1.7-0.9-3.3-1.8-5.2-2.8
			c-1.9-0.9-4-2-6.2-2.1c-0.1,0-0.2-0.1-0.3-0.2c0.2-0.1,0.6-0.1,0.8-0.1c2.3,0.4,4.8,0.8,7,1.3c4,0.9,7.4,2.3,11.1,4.1
			c3,1.5,6,3.3,9.1,4.6c0.3,0.1,0.7,0.4,0.9,0.5C51.7,87.6,51.6,87.7,51.5,87.7z M27.6,78c3,1.6,6,3.6,9.1,4.8
			c3.1,1.2,6.2,1.5,9.3,2.3C40,81.7,34.2,79.4,27.6,78z"/>
		<path d="M69.1,34.7c-0.7,1.6-1.4,3.1-2.7,4.2c-1.6,1.4-3.3,2.3-5.1,3.3c0-0.1-0.2-0.1-0.1-0.2c0.1-0.2,0.3-0.4,0.5-0.5
			c1-1,2.1-1.9,3-3.1c1.9-2.2,2.9-4.7,3.4-7.7c0.3-1.5,0.5-3,0.8-4.5c-0.3,0.1-0.3,0.5-0.4,0.7c-0.3,1.2-0.4,2.4-0.7,3.6
			c-0.6,3.4-1.9,6-4.1,8.5c-1.9,2.1-4,3.7-6.3,5.3c-2.6,1.8-5.4,3.5-7.9,5.5c-0.1,0.1-0.3,0.1-0.4,0.1c0.3-0.3,0.6-0.6,0.9-0.9
			c2-1.9,4.3-3.7,6.5-5.3c2.1-1.6,3.8-3.2,5.4-5.4c0.6-0.8,1.1-1.6,1.5-2.5c1-2.2,1.9-4.5,2.7-6.8c-0.5,0.8-0.9,1.6-1.3,2.5
			c-0.9,2.5-1.9,4.9-3.6,7.1c-1.4,1.8-3,3.3-4.8,4.8c-2.6,2-5.2,4.1-7.6,6.5c-0.5,0.5-0.9,1-1.3,1.5c0,0,0.1,0.1,0.1,0.1
			c0.1,0,0.4-0.2,0.5-0.3c4.6-3.6,9.4-6.6,14.5-9.4c1.2-0.7,2.4-1.4,3.5-2.2C67.6,38.3,68.5,36.7,69.1,34.7z"/>
		<path d="M47,73.5c-0.3-0.4-0.7-0.9-1-1.2c-1.8-1.8-3.8-3.1-6.1-3.5c-2.8-0.5-5.3-0.4-8.1-0.6c-1.9-0.2-3.8-0.3-5.7-1
			c-2.6-0.8-4.9-2.3-6.9-4.2c-0.2-0.2-0.5-0.5-0.9-0.6c0.1,0.1,0.2,0.3,0.3,0.4c1.8,1.8,3.9,3.3,6.2,4.2c2.7,1.1,5.5,1.3,8.2,1.5
			c2.1,0.2,3.9,0.1,6,0.4c1.7,0.2,3.3,0.8,4.8,1.8c0.2,0.1,0.5,0.4,0.6,0.7c-0.1,0-0.2,0-0.3,0c-1.7-0.8-3.4-1.2-5.3-1
			c-1.5,0.1-2.9,0.4-4.4,0.6c-2.1,0.3-4.2,0.5-6.3,0.2c-2.1-0.3-3.9-1-5.7-2.4c-1.4-1-2.6-2.3-3.8-3.6c-0.1-0.2-0.4-0.4-0.5-0.4
			c-0.1,0,0.1,0.2,0.1,0.3c1.3,1.6,2.9,3.2,4.6,4.4c2.2,1.5,4.5,2.1,6.9,2.1c2.1,0,4-0.4,6-0.6c1.5-0.1,2.7-0.4,4.2-0.4
			c2.4,0,4.4,1.1,6.3,2.7C46.7,73.4,46.9,73.5,47,73.5C47,73.6,47.1,73.5,47,73.5z"/>
		<path d="M65.1,47.3c-0.6,0.4-1.1,0.9-1.7,1.3c-1.7,1.4-3.4,2.5-5.3,3.5c-2.7,1.4-5.2,3-7.4,5.1c-0.7,0.7-1.2,1.4-1.9,2.1
			c0.1,0,0.1,0.2,0.2,0.1c0.3-0.2,0.7-0.5,1-0.7c2.6-1.8,5.2-3.6,8.1-4.7c1.5-0.6,3-1.1,4.5-1.6c2.9-1,5.7-2.2,8.2-4.1
			c0.5-0.4,1-0.9,1.4-1.4c-2.5,2.1-5.1,3.5-8,4.7c-1.6,0.7-3.3,1.2-5,1.8c0-0.1-0.1-0.2-0.1-0.2c0.3-0.2,0.7-0.4,1.1-0.6
			c2-1.1,4-2.2,6-3.3c2.3-1.3,4.4-2.9,6.3-4.7c0.7-0.7,1.4-1.5,2.1-2.3c0.2-0.3,0.4-0.6,0.4-1c-0.1,0.1-0.2,0.2-0.3,0.3
			c-1,1.4-2.1,2.6-3.4,3.7c-2.8,2.3-5.8,4.1-8.9,5.8c-2.3,1.3-4.7,2.5-7.1,3.9c-1.8,1.1-3.7,2.3-5.5,3.5c0.2-0.2,0.4-0.5,0.7-0.8
			c1.7-1.7,3.6-3.1,5.7-4.3c0.8-0.4,1.6-0.9,2.4-1.3c2.4-1.2,4.4-2.8,6.4-4.5C65.1,47.5,65.2,47.4,65.1,47.3
			C65.3,47.3,65.2,47.3,65.1,47.3z"/>
		<path d="M82.2,75.7c-0.7,0.2-1.2,0.7-1.7,1.2c-1.8,1.7-3.3,3.7-5,5.5c-2.8,2.9-5.9,4.6-9.6,5.9c-1.3,0.5-2.5,0.9-3.7,1.6
			c1.2,0.2,2.1-0.3,3.2-0.6c2.2-0.6,4.3-1.2,6.5-2.1c3.5-1.4,6.3-3.6,8.9-6.5c0.6-0.7,1.2-1.5,1.7-2.3c0.1-0.1,0.1-0.4,0.1-0.6
			c-0.1,0.1-0.2,0.2-0.2,0.3c-2,2.8-4.3,5.2-7.2,7c-3.1,1.9-6.3,2.9-9.8,3.7c4.3-1.5,7.8-3.6,11-7C78.4,79.8,80.2,77.6,82.2,75.7z"
			/>
		<path d="M55.1,79.8c0.1,0.9-0.5,1.6-0.5,2.5c0.1-0.1,0.3-0.2,0.3-0.3c1.1-2.6,2.5-4.3,4.8-5.8c2.8-1.7,5.6-2.6,8.8-3
			c1.9-0.2,3.8-0.4,5.6-1.1c0.9-0.3,1.6-0.8,2.4-1.3c-1.3,0.5-2.6,1.1-3.9,1.5c-1.4,0.4-2.8,0.5-4.2,0.8c0,0-0.1-0.2-0.1-0.2
			c0.3-0.1,0.6-0.3,0.9-0.4c3.1-1,6-2.1,8.7-4c0.9-0.7,1.7-1.5,2.4-2.4c0.1-0.1,0.2-0.3,0.2-0.4c0,0-0.2,0-0.2,0.1
			c-2.6,2.9-5.6,4.5-9.2,5.8c-2.8,1-5.5,1.7-8.2,2.9c-3.4,1.4-6,3.3-8,6.5C55,80.5,54.9,80.1,55.1,79.8
			C55.1,79.8,55.1,79.8,55.1,79.8z"/>
		<path d="M35.4,17.4c1,2.9,2.2,5.6,4,8.1c1.5,2.1,3.1,4.1,4.5,6.3c0.1,0.2,0.2,0.4,0.3,0.5c0,0.1,0,0.2,0,0.2c0,0-0.2-0.1-0.2-0.1
			c-1.5-1.6-3-3-4.4-4.6c-1.4-1.6-2.1-3.5-2.7-5.6c0-0.1-0.1-0.3-0.1-0.4c0-0.1-0.1-0.1-0.2-0.2c0.1,1.4,0.4,2.7,1.1,3.9
			c0.7,1.3,1.4,2.4,2.5,3.4c2.4,2.3,4.6,4.8,6.6,7.5c0.1,0.1,0.3,0.3,0.5,0.3c-0.1-0.2-0.1-0.4-0.2-0.5c-2.1-3.3-4.4-6.7-6.7-9.8
			c-1.8-2.4-3-5-4.3-7.7C35.8,18.2,35.6,17.8,35.4,17.4z"/>
		<path d="M55.1,79.8c0-0.2,0.2-0.3,0.3-0.4c1.3-2.5,3.2-4.2,5.7-5.4c2.5-1.2,4.8-1.9,7.4-2.9c4.8-1.9,8.6-4.5,12-8.4
			c0.2-0.3,0.4-0.5,0.6-0.8c0,0,0-0.2,0-0.3c-0.1,0.1-0.3,0.2-0.4,0.3c-3.5,4.2-7.5,6.9-12.5,8.9c-2.5,1-4.8,1.7-7.2,2.9
			c-2.4,1.2-4.3,2.7-5.6,5.2C55.3,79.2,55.4,79.6,55.1,79.8C55.1,79.8,55.1,79.8,55.1,79.8z"/>
		<path d="M47.5,33.8C46.8,24,47.3,16.1,51,7.1c-1.9,4.3-3.7,8.5-4.1,13.2C46.5,25,47.1,29.2,47.5,33.8z"/>
		<path d="M46.6,34.7c0-0.1-0.1-0.3-0.2-0.5c-2.1-3.7-4-7.5-6-11.3c-1.9-3.5-4.6-6.6-6.8-9.9c0.1,0.3,0.2,0.6,0.4,0.9
			c0.5,0.8,1,1.7,1.6,2.4c3.2,4.3,5.7,8.9,8.2,13.6c0.8,1.6,1.8,3.2,2.7,4.7C46.5,34.7,46.7,34.8,46.6,34.7z"/>
		<path d="M43.9,28.2c-1.3-3.5-2.4-7-4.4-10.2c-1-1.6-2.3-3.1-3.6-4.5c-0.5-0.5-1-0.9-1.5-1.3c0,0-0.1,0.1-0.1,0.1
			c0,0,0.1,0.2,0.2,0.2c1.6,1.3,3.1,3,4.3,4.8c2,3.1,3.3,6.4,4.6,9.9c0.1,0.4,0.2,0.7,0.4,1.1C43.8,28.3,43.9,28.1,43.9,28.2z"/>
		<path d="M48.5,29.2c-0.2-0.5,0.2-0.8,0.3-1.3c0.6-2.8,1.4-5.5,2.6-8.1c1.2-2.6,2.1-5.2,2.6-8c-0.3,1-0.7,2.1-0.9,3.1
			c-0.5,1.9-1.2,3.5-2,5.2c-1.2,2.5-2,5.1-2.4,8C48.5,28.3,48.8,28.9,48.5,29.2C48.5,29.2,48.5,29.2,48.5,29.2z"/>
		<path d="M54.4,33.1c4.9-2,7.3-5.5,9.1-10.5c-0.1,0.1-0.2,0.3-0.2,0.4c-0.4,0.9-0.8,1.8-1.2,2.6c-1,2.1-2.3,3.8-4.1,5.1
			C56.9,31.6,55.6,32.3,54.4,33.1z"/>
		<path d="M67.1,59.2c4.1-0.8,7.6-1.8,10.7-4.8C74.5,57.1,71,58.1,67.1,59.2z"/>
		<path d="M62.7,61.1c3.2-0.6,6.4-1.2,9.7-1.9c1.1-0.3,2-0.9,2.8-1.6c-0.1,0-0.3,0.1-0.4,0.1c-1.8,1.1-3.8,1.6-5.9,2
			c-1.2,0.2-2.5,0.4-3.7,0.6c-0.8,0.2-1.7,0.4-2.5,0.6C62.7,61,62.8,61.1,62.7,61.1z"/>
		<path d="M50.9,69.5c0,0.1-0.4,0.1-0.5,0.1c0.8-1.4,1.7-2.6,2.7-3.8c1-1.2,2.3-1.9,3.6-2.7c-3.5,1.6-5.3,4.3-7.2,7.6
			c0.3-0.2,0.6-0.4,0.8-0.6C50.5,69.9,50.6,69.6,50.9,69.5C50.9,69.5,50.9,69.5,50.9,69.5z"/>
		<path d="M50.9,69.5c0-1.5,1.8-1.6,2.7-2.3c1.2-1,2.2-2.3,3.3-3.3c0.4-0.3,0.7-0.7,1-1.1c-0.2,0.1-0.4,0.2-0.6,0.3
			c-0.4,0.4-0.8,0.7-1.2,1.1C54.5,66.1,53.4,68.6,50.9,69.5C50.9,69.5,50.9,69.5,50.9,69.5z"/>
		<path d="M77.2,52.8c-2.4,1.6-4.7,3.2-7.3,4.6C72.6,56.5,75.1,54.9,77.2,52.8z"/>
	</g>
	<g>
		<path d="M60.7,97.5c-0.2-0.3-0.4-0.6-0.6-1c-1.9-2.8-3.9-5.4-5.7-8.4c-2.6-4.3-4.4-9-5.4-14c-0.7-3.5-1.3-6.9-2.2-10.1
			c-0.5-1.8-0.5-3.1-0.7-4.7c-0.4-3.5-0.1-6.6,0.7-10c0.5-2.4,1.1-4.9,1.6-7.3c0.1-0.6,0.3-1.3,0.2-1.9c-0.2-1.9,0.2-3.4,1.5-4.7
			c1.4-1.5,3.1-2.1,4.9-2.8c0.7-0.3,1.5-0.5,2.2-0.8c1.9-0.8,3.2-2.1,4.1-4c0.9-1.9,1.5-3.6,2.2-5.5c0.5-1.5,0.9-2.9,1.4-4.4
			c0.2-0.6,0.5-1.2,0.3-1.9c-0.4-0.2-0.8,0.1-1.2,0.3c-2,1.3-3.6,2.8-4.9,4.8c-0.7,1.1-1.3,2.2-1.9,3.3c-1.1,2.1-2.5,3.8-4.2,5.3
			c-1.7,1.5-2.9,3-3.8,5.1c-0.2,0.4-0.5,0.9-0.8,1.2c-0.1-1.1-0.2-2.3-0.3-3.3c-0.1-1.5,0.1-2.9,0.5-4.3c0.6-1.8,1.2-3.6,2-5.3
			c1.4-3.1,2.2-5.8,2.7-9.2c0.4-2.7,1.2-5.4,1.9-8.1c0.1-0.4,0.1-1.1,0-1.5c-0.3-0.9-1-1.4-1.8-0.8c-0.3,0.2-0.6,0.5-0.8,0.9
			c-0.5,1-1.2,1.9-1.6,2.9c-1,2.3-2.4,4.4-3.7,6.5c-2,3.2-2.3,6.5-1.6,10.1c0.7,3.7,1.7,7,2,10.7c0,0.6,0.1,1.2,0.1,1.8
			c0,0.1-0.2,0.1-0.2,0c-0.2-0.2-0.4-0.5-0.5-0.8c-1.2-2.7-2.5-5.4-3.5-8.1c-1.4-3.6-2.3-7.3-4-10.7c-0.8-1.5-2-2.7-3.2-3.8
			c-0.5-0.4-1.1-0.7-1.6-0.9c-0.6-0.2-0.9,0.1-0.9,0.7c0,0.6,0.1,1.2,0.4,1.8c1.1,2.3,1.9,4.6,2.5,7c0.4,1.6,0.7,3,1.3,4.5
			c0.8,2.1,2.3,3.5,4.1,4.8c1.5,1.2,3.1,2.6,4.2,4.2c0.9,1.3,1.7,2.8,1.7,4.3c0,3-0.8,5.9-1.3,8.8c-0.8,3.9-1.3,7.1-0.8,11.3
			c0.5,4.6,1.8,9.2,2.7,14.1c0.8,4.1,2.1,8.4,4.2,12.2c1.7,3,3.7,6.1,5.7,8.9c0.7,1,1.3,1.8,1.9,2.8c-0.1,0-0.4,0.2-0.5,0.1
			c-0.1-0.1-0.1-0.3-0.2-0.5c-1.6-2.3-3.2-4.7-4.9-7c-0.2-0.3-0.5-0.7-0.9-0.8c-0.6-0.4-1.4-0.8-2-1c-2.6-0.9-5-1.2-7.6-1
			c-1.4,0.1-2.6,0.4-4,0.4c-2.9,0-5.3-0.6-7.8-2.4c-2.5-1.8-5.1-3.8-7.7-5.6c-0.6-0.4-1.3-1.1-1.8-1.6c-0.5-0.5-0.7-1-0.5-1.7
			c0.3-0.7,0.9-0.7,1.5-0.7c0.1,0,0.2,0,0.3,0c4.1,0.6,8.1,1,12.3,1.6c3.4,0.6,6.1,2.1,8.7,4.8c1.9,2,4.2,3.9,6.7,5.3
			c0.4,0.2,0.8,0.5,1.2,0.7c0-0.1,0.1-0.1,0-0.3c-0.1-0.2-0.3-0.6-0.4-0.8c-1.4-2.6-2.7-5.4-3.6-8.2c-0.5-1.8-1.3-3.4-2.3-4.8
			c-1.6-2.1-3.2-3.3-5.7-2.9c-1.3,0.2-2.2,0.7-3.4,1c-1.6,0.4-2.9,1.1-4.6,1.4c-4,0.6-7.3-0.4-10.5-3.2c-1.6-1.4-2.9-3.3-4.2-5.1
			c-0.4-0.6-0.7-1.2-1-1.8c-0.3-0.9,0-1.4,0.9-1.4c0.6,0,1.3,0.2,1.9,0.4c1.7,0.7,3.5,1.6,5.1,2.2c3.9,1.6,7.6,2.2,11.8,2.2
			c1.7,0,2.9,0.2,4.5,1c2.6,1.3,4.5,3.4,6,6.1c0.1,0.1,0.3,0.3,0.4,0.4c0-0.3-0.1-0.7-0.1-0.9c-0.2-1.2-0.5-2.3-0.6-3.5
			c-0.2-1.6-0.9-2.8-1.9-3.9c-0.4-0.5-0.9-1-1.3-1.4c-2-1.8-3.8-3.4-6.1-4.7c-2.6-1.4-5.3-2.7-7.9-4c-2-1-4-1.9-5.9-3.3
			c-1.3-1-2.7-2.2-3.6-3.7c-0.6-1-1.2-2.3-1.2-3.4c0-1.1,0.2-1.5,1.3-1.6s2.5,0.3,3.6,0.9c1.4,0.7,2.9,1.4,4.3,2
			c1.4,0.7,3.1,1.3,4.4,2.1c2.8,1.6,4.8,3.6,6.6,6.2c1.1,1.7,1.7,3.2,2.7,4.9c1,1.8,2,3.7,3.3,5.3c0.1,0.2,0.5,0.5,0.7,0.6
			c-0.1-0.4-0.2-1.1-0.3-1.4c-0.3-1.3-0.6-2.6-0.7-3.9c-0.2-2-0.3-3.8-0.4-5.7c0-0.3-0.1-0.6-0.2-0.9c-1.4-2.8-3.1-5.1-5.5-7.1
			c-1.2-1-2.4-1.9-3.6-2.8c-1.6-1.2-2.8-2.4-3.9-4c-0.5-0.7-1-1.5-1.5-2.2c-1.4-2.1-3-4.1-4.2-6.3c-0.4-0.7-0.8-1.6-1-2.4
			c-0.3-0.8-0.4-1.6,0.2-2.3c0.6-0.6,1.4-0.5,2.2-0.2c1.2,0.5,2.3,1.2,3.4,1.9c2.2,1.5,4.5,3.1,6.4,5c4.1,4.3,6.2,8.6,7,14.5
			c0.2,1.2,0.3,2,0.5,3.1c0.1,0.3,0.1,0.6,0.4,0.7c0-0.1,0.1-0.2,0.1-0.4c0.5-2.3,1.1-4.5,1.5-6.9c0.3-2.1,0.6-4.1,0.4-6.3
			c-0.2-1.3-0.8-2.5-1.7-3.5c-1.1-1.5-2.8-2.8-4.2-3.9c-1.4-1.1-2.5-2-3.3-3.5c-0.9-1.7-1.2-3.4-1.6-5.2c-0.6-2.5-1.4-4.9-2.5-7.3
			c-0.3-0.6-0.5-1.4-0.5-2c0-0.9,0.4-1.4,1.3-1.1c0.6,0.2,1.3,0.5,1.8,1c1.4,1.2,2.8,2.6,3.6,4.3c1.7,3.5,2.6,7.2,4,10.8
			c0.9,2.3,1.9,4.6,2.9,6.9c0.1,0.2,0.2,0.5,0.3,0.5c0.1,0,0.1,0,0.1-0.2c0-0.1,0-0.5-0.1-0.8c-0.4-3.8-1.5-7.4-2.2-11.3
			c-0.5-2.9-0.3-5.7,1.2-8.3c1.5-2.6,3.4-5.1,4.6-7.9c0.4-0.8,0.8-1.6,1.3-2.4c0.3-0.4,0.5-0.9,0.9-1.2c1.1-0.8,2.1-0.1,2.4,1.2
			c0.1,0.4,0.1,1,0,1.3c-0.7,2.9-1.6,5.7-2,8.6c-0.1,0.8-0.2,1.6-0.4,2.4c-0.4,2.5-1.4,4.7-2.4,7c-0.8,1.9-1.5,4.1-2.1,6.2
			c-0.3,1.2-0.3,2.6-0.1,3.8c0,0.2,0.1,0.5,0.2,0.6c0,0.1,0.1,0,0.2,0c0,0,0.1-0.2,0.2-0.3c0.8-1.7,1.7-3,3.1-4.2
			c2.1-1.8,3.7-3.9,5.1-6.4c0.7-1.3,1.4-2.6,2.3-3.8c1.2-1.6,2.6-2.8,4.3-3.8c0.5-0.3,1.1-0.5,1.6-0.1c0,0.4,0.1,0.8,0,1.2
			c-0.1,0.5-0.3,1-0.4,1.5c-0.4,1.3-0.8,2.6-1.3,3.9c-0.7,2-1.5,4.1-2.4,6c-0.6,1.4-1.7,2.5-3,3.1c-1.2,0.7-2.4,0.9-3.6,1.4
			c-1.5,0.6-2.8,1.2-4.1,2.3c-1.5,1.3-1.7,3-1.7,5c0,0.7-0.1,1.4-0.3,2.1c-0.5,2.6-1.1,5.1-1.7,7.7C47,50.5,47,50.9,47,51.2
			c0.1-0.1,0.4-0.3,0.5-0.4c0.4-0.5,0.8-1,1.2-1.4c2.3-2.8,4.8-5.4,7.6-7.6c1.5-1.2,2.9-2.4,4.2-3.8c1.9-1.9,3.2-4,4.3-6.5
			c0.5-1.1,0.8-2.2,1.4-3.3c0.4-0.7,0.8-1.4,1.5-2c0.7-0.6,1.5-0.6,1.9,0.4c0.3,0.6,0.4,1.3,0.4,1.9c0.1,2.4,0,4.7-0.7,7
			c-1,3.6-2.9,6.1-6.1,8.1c-0.9,0.6-1.9,0.9-2.8,1.3c-3.7,1.6-7.4,3.3-10.9,5.6c-0.7,0.4-1.4,1-2,1.6c-0.6,0.6-1,1.3-1.1,2.2
			c-0.1,2.4,0.1,4.7,0.3,7.1c0,0.1,0.1,0.4,0.2,0.5c0.1-0.2,0.3-0.4,0.3-0.6c0.4-0.9,0.7-1.7,1.2-2.5c1.4-2.5,3.1-4.3,5.5-5.9
			c1.6-1,3.5-1.8,5.3-2.5c3.1-1.2,5.8-2.8,8.4-4.9c1.2-1,2.3-2,3.5-2.9c0.8-0.6,1.6-1.2,2.4-1.7c0.4-0.2,0.8-0.3,1.2-0.5
			c0.5,0.3,0.7,0.8,0.6,1.4c-0.2,1.4-0.7,2.6-1.5,3.6c-3.4,4.2-7.1,7.1-12,8.9c-2.4,0.9-5,1.5-7.3,2.3c-2.3,0.8-4.1,1.8-5.6,3.7
			c-0.5,0.6-0.9,1.2-1.4,1.8c-0.4,0.6-0.5,1-0.3,1.6c0.5,2.2,1,4.4,1.5,6.6c0,0.2,0.1,0.4,0.2,0.5c0.1,0,0.1,0,0.2-0.1
			c0.1-0.1,0.1-0.5,0.2-0.8c0.8-2.7,2-4.7,4.5-6.1c1.6-0.9,3.3-1.3,5.1-1.7c0.4-0.1,0.8-0.1,1.1-0.3c1.8-1,3.5-1.9,5.2-3
			c2-1.3,3.8-2.7,5.7-4c1-0.7,1.9-1.4,3-2c0.8-0.4,1.7-0.7,2.6-0.9c0.9-0.2,1.4,0.4,1.6,1.2c0.2,0.8,0,1.4-0.4,2.1
			c-1.5,2.3-3.3,3.9-5.8,4.8c-3.3,1.3-6.8,1.8-10.3,2.1c-1.2,0.1-2.1,0.6-2.9,1.4c-2.2,2.5-4.5,4.4-7.2,6.1c-0.7,0.4-1.2,1-1.8,1.6
			c-0.5,0.6-0.5,1.2-0.4,1.9c0.1,0.7,0.2,1.3,0.4,1.9c0.8,3.6,1.9,6.9,3.7,10.2c0.2,0.3,0.4,0.6,0.6,0.9c0.1-0.6,0.1-1.4,0.1-2
			c0.2-2.5,0.8-4.8,2.2-6.8c1.8-2.6,4.1-3.9,6.6-5.4c0.9-0.5,1.8-1,2.8-1.5c3.6-2,7-4.2,9.9-7.2c0.5-0.6,1.2-1.1,1.8-1.5
			c0.6-0.4,1.1-0.8,1.8-0.9c1.2-0.3,2.1,0.3,2.3,1.6c0.1,0.5,0,1.1-0.1,1.6c-0.9,3-2.2,5.5-4.7,7.2c-3.3,2.3-6.7,3.5-10.5,4.6
			c-2.4,0.7-4.6,1-7,2.1c-3.1,1.4-4.3,3.8-4.4,7.4c0,1.5,0.5,3.3,1.3,4.7c0.4,0.7,0.9,1.4,1.4,2.1c0.1,0.2,0.4,0.5,0.6,0.6
			c0.4-0.9,1-1.7,1.8-2.1c0.8-0.4,1.5-0.9,2.3-1.2c2.6-1.2,5.1-2.3,7.6-3.8c3-1.9,5.5-4.3,7.9-7.1c0.6-0.7,1.2-1.5,1.9-2.1
			c0.5-0.5,1.1-0.9,1.8-1.2c0.9-0.4,1.7,0.1,2,1.1c0.2,1,0.1,1.8-0.3,2.7c-0.9,1.8-1.9,3.4-3.3,4.8c-2.6,2.6-5.5,4.2-8.9,5.2
			c-2.1,0.6-4,0.7-6.1,1c-1.4,0.2-2.7,0.3-3.9,1c-0.7,0.3-1.2,0.7-1.8,1.3c-0.5,0.6-0.4,1.3,0.1,1.9c0.3,0.4,0.6,0.8,0.9,1.2
			c0.5,0.7,1,1.4,1.5,2.2C61,97.3,60.8,97.6,60.7,97.5z M49.9,86.8c-1.5-1-3-2.4-4.3-3.7c-2.5-2.7-5.2-4.5-8.7-5
			c-3.9-0.7-7.7-1-11.6-1.6c-0.4-0.1-0.9-0.1-1.4-0.2c-0.5,0-0.9,0.1-1.1,0.6c-0.2,0.4,0,0.8,0.3,1.1c0.5,0.5,1,1,1.5,1.4
			c2.8,1.9,5.5,4,8.2,6c2.2,1.6,4.4,2.1,7,2.1c1.4,0,2.5-0.2,3.9-0.4c2.1-0.2,4.2-0.2,6.3,0.4c0.3,0.1,0.6,0.1,0.8,0.2
			c0,0,0.1-0.1,0-0.2C50.7,87.3,50.2,87,49.9,86.8z M43.5,46c-0.9-4.6-3-8.2-6.3-11.6c-1.9-2-4.3-3.7-6.6-5.2
			c-1.2-0.8-2.2-1.5-3.5-1.9c-0.2-0.1-0.5-0.2-0.7-0.2c-0.8,0-1.2,0.4-1.1,1.2c0,0.6,0.2,1.2,0.4,1.7c0.4,1,1,2,1.6,2.9
			c1.4,2.2,3,4.3,4.3,6.4c1.4,2.1,2.9,3.7,4.9,5.2c1,0.7,2,1.5,3,2.3c1.9,1.6,3.5,3.4,4.8,5.6c0.1,0.2,0.3,0.5,0.4,0.6
			c0.1,0.1,0.1,0,0.1,0.1C44,50.6,44,48.5,43.5,46z M43.2,62.1c-1.2-2-1.9-3.9-3.2-5.9c-1.9-3-4.2-5.3-7.3-7c-0.9-0.5-2.1-1-3.1-1.5
			c-1.8-0.8-3.6-1.7-5.4-2.5c-0.9-0.4-1.8-0.6-2.8-0.8c-0.4-0.1-1,0.1-1.4,0.1c0,0.5-0.1,1,0.1,1.5c0.4,1.8,1.3,3.3,2.6,4.6
			c1.5,1.5,3.3,2.7,5.1,3.6c2.7,1.4,5.4,2.6,8,3.9c2.8,1.4,5.1,3.1,7.5,5c0.2,0.2,0.4,0.3,0.6,0.5c0,0,0.2-0.1,0.1-0.1
			C43.7,63.1,43.4,62.6,43.2,62.1z M46.3,72.1c-1.4-1.8-3-3.1-4.9-4c-1.3-0.6-2.4-0.8-3.8-0.8c-3.6,0-6.8-0.3-10.3-1.5
			c-2-0.7-4.1-1.7-6.1-2.5c-0.7-0.3-1.4-0.5-2.1-0.7c-0.4-0.1-0.9-0.1-1.1,0.2c-0.3,0.4,0,0.9,0.3,1.3c0.4,0.7,0.9,1.5,1.4,2.1
			c1,1.2,1.9,2.5,3,3.6c2.5,2.5,5.4,3.7,8.7,3.8c2.1,0,3.7-0.7,5.6-1.2c1.4-0.4,2.5-0.8,3.9-1.2c1.9-0.5,3.5,0,5,1.3
			c0.2,0.2,0.6,0.5,0.8,0.6c0,0,0.1-0.1,0.1-0.1C46.6,72.6,46.4,72.3,46.3,72.1z M55.1,80.8c1.2-2.2,3.1-3.2,5.3-4
			c2.2-0.7,4.2-1.1,6.3-1.7c3.3-1,6.4-2.2,9.3-4.2c2.5-1.7,3.9-4.1,4.8-7c0.2-0.5,0.2-1.1,0.1-1.6c-0.2-1-0.8-1.4-1.8-1.2
			c-0.6,0.2-1.1,0.4-1.6,0.8c-0.6,0.4-1.3,1-1.8,1.6c-2.9,2.9-6.2,5.1-9.8,7.1c-1.6,0.9-3.2,1.6-4.7,2.6c-1.9,1.2-3.5,2.5-4.8,4.3
			c-0.5,0.7-0.8,1.6-1.3,2.4c-0.2,0.3-0.3,0.7-0.3,1c0,0.1,0.1,0.1,0.2,0.1C55,81,55.1,80.9,55.1,80.8z M48.2,50.9
			c3.7-2.5,7.6-4.5,11.7-6.2c1-0.4,1.9-0.7,2.8-1.2c2.9-1.6,4.9-3.8,6-7.1c0.9-2.6,1-5.2,1-7.9c0-0.5-0.1-1.1-0.3-1.6
			c-0.3-0.8-0.9-1-1.5-0.4c-0.6,0.6-1.1,1.3-1.5,2.1c-0.6,1.1-0.9,2.3-1.4,3.4c-1.1,2.5-2.5,4.6-4.4,6.5c-1.4,1.4-2.9,2.6-4.4,3.8
			c-2.2,1.8-4.3,3.8-6.2,6c-0.5,0.6-1.1,1.3-1.6,1.9c-0.2,0.2-0.4,0.5-0.6,0.8c0,0,0.1,0.1,0.1,0.1C47.9,51,48.1,51,48.2,50.9z
			 M73.1,41.4c-1.2,0.9-2.3,1.8-3.5,2.8c-1.2,1-2.4,2.1-3.8,3.1c-2,1.4-4.1,2.4-6.4,3.3c-1.7,0.7-3.5,1.4-5.1,2.3
			c-2.5,1.5-4.2,3.4-5.6,5.9c-0.3,0.6-0.6,1.1-0.8,1.6c0,0,0.1,0.1,0.1,0.1c0.1-0.1,0.3-0.3,0.5-0.5c1.7-2,3.7-3.1,6.2-3.9
			c2.5-0.8,5.2-1.5,7.7-2.4c4.7-1.8,8.1-4.7,11.2-8.7c0.6-0.8,1-1.7,1.2-2.7c0.1-0.5,0.1-1-0.2-1.5C74.1,40.8,73.6,41,73.1,41.4z
			 M67.6,89c2.9-0.5,5.5-1.3,8.1-2.9c2.8-1.8,4.8-4.2,6.4-7.1c0.5-0.8,0.7-1.7,0.5-2.7c-0.1-1-0.8-1.3-1.6-0.9
			c-0.6,0.3-1.1,0.7-1.6,1.2c-0.7,0.6-1.3,1.3-1.8,2c-2.5,3-5.2,5.5-8.5,7.6c-1.7,1.1-3.4,1.8-5.1,2.6c-0.4,0.2-0.8,0.3-1.1,0.5
			c0,0,0.1,0.1,0,0.1C64.6,89.4,66.1,89.3,67.6,89z M63,61.6c3.1-0.4,6.1-1,9-2.2c2.3-0.9,3.9-2.4,5.2-4.5c0.1-0.2,0.3-0.5,0.4-0.7
			c0.2-0.6,0.1-1.2-0.3-1.7c-0.4-0.5-0.9-0.4-1.4-0.2c-0.5,0.2-0.9,0.5-1.3,0.9c-0.9,0.9-1.8,1.9-2.8,2.7c-1.6,1.4-3.3,2.5-5.2,3.4
			c-1.3,0.6-2.6,1.1-3.9,1.7c-0.3,0.1-0.5,0.2-0.7,0.4c0,0,0,0.2,0.1,0.2C62.3,61.7,62.7,61.7,63,61.6z M52.5,68.4
			c2.3-1.5,4.2-3.3,6-5.4c0.1-0.1,0.1-0.1,0.1-0.2c-2,0-3.6,0.6-5.4,1.8c-2,1.3-3.5,3.5-3.8,6.1C50.5,69.8,51.5,69.1,52.5,68.4z
			 M64.7,59.6c3.6-0.7,6.8-3.4,9-6.2C70.7,55.4,67.7,57.5,64.7,59.6z"/>
	</g>
</g>
</svg>
